<svg width="24" height="24" viewBox="0 0 24 24" fill="none" xmlns="http://www.w3.org/2000/svg">
<path d="M12 5.33334C15.6819 5.33334 18.6667 8.31811 18.6667 12C18.6667 15.6819 15.6819 18.6667 12 18.6667C8.3181 18.6667 5.33333 15.6819 5.33333 12C5.33333 8.31811 8.3181 5.33334 12 5.33334ZM12 6.33334C8.87038 6.33334 6.33333 8.8704 6.33333 12C6.33333 15.1296 8.87038 17.6667 12 17.6667C15.1296 17.6667 17.6667 15.1296 17.6667 12C17.6667 8.8704 15.1296 6.33334 12 6.33334ZM12 8.16668C12.2761 8.16668 12.5 8.39053 12.5 8.66668V11.5H15.3333C15.6095 11.5 15.8333 11.7239 15.8333 12C15.8333 12.2762 15.6095 12.5 15.3333 12.5H12.5V15.3333C12.5 15.6095 12.2761 15.8333 12 15.8333C11.7239 15.8333 11.5 15.6095 11.5 15.3333V12.5H8.66666C8.39052 12.5 8.16666 12.2762 8.16666 12C8.16666 11.7239 8.39052 11.5 8.66666 11.5H11.5V8.66668C11.5 8.39053 11.7239 8.16668 12 8.16668Z" fill="currentColor"/>
</svg>
