<svg width="24" height="24" viewBox="0 0 24 24" fill="none" xmlns="http://www.w3.org/2000/svg">
<path d="M16.5617 6.7301C16.7561 6.53554 17.0727 6.53425 17.2687 6.72719C17.4647 6.92016 17.4661 7.23427 17.2717 7.42884L12.7039 12L17.2717 16.5712C17.466 16.7658 17.4648 17.0799 17.2687 17.2728C17.0727 17.4658 16.7561 17.4645 16.5617 17.2699L12 12.7046L7.43831 17.2699C7.24389 17.4645 6.92735 17.4657 6.73128 17.2728C6.53522 17.0799 6.53392 16.7658 6.72835 16.5712L11.2959 12L6.72835 7.42884C6.53392 7.23426 6.53522 6.92015 6.73128 6.72719C6.92735 6.53425 7.24387 6.53554 7.43831 6.7301L12 11.2953L16.5617 6.7301Z" fill="currentColor"/>
</svg>
