<svg width="24" height="24" viewBox="0 0 24 24" fill="none" xmlns="http://www.w3.org/2000/svg">
<path d="M14 14.6667C14.5595 14.6667 15.0382 15.0114 15.236 15.5H17.6667C17.9428 15.5 18.1667 15.7238 18.1667 16C18.1667 16.2761 17.9428 16.5 17.6667 16.5H15.236C15.0382 16.9886 14.5595 17.3333 14 17.3333C13.2636 17.3333 12.6667 16.7364 12.6667 16C12.6667 15.2636 13.2636 14.6667 14 14.6667ZM14 15.3333C13.6318 15.3333 13.3333 15.6318 13.3333 16C13.3333 16.3682 13.6318 16.6667 14 16.6667C14.3682 16.6667 14.6667 16.3682 14.6667 16C14.6667 15.6318 14.3682 15.3333 14 15.3333ZM11.8333 15.5C12.1095 15.5 12.3333 15.7238 12.3333 16C12.3333 16.2761 12.1095 16.5 11.8333 16.5H6.33334C6.0572 16.5 5.83334 16.2761 5.83334 16C5.83334 15.7238 6.0572 15.5 6.33334 15.5H11.8333ZM10 10.6667C10.7364 10.6667 11.3333 11.2636 11.3333 12C11.3333 12.7364 10.7364 13.3333 10 13.3333C9.4405 13.3333 8.96184 12.9886 8.76401 12.5H6.33334C6.0572 12.5 5.83334 12.2761 5.83334 12C5.83334 11.7238 6.0572 11.5 6.33334 11.5H8.76401C8.96184 11.0114 9.4405 10.6667 10 10.6667ZM10 11.3333C9.63182 11.3333 9.33334 11.6318 9.33334 12C9.33334 12.3682 9.63182 12.6667 10 12.6667C10.3682 12.6667 10.6667 12.3682 10.6667 12C10.6667 11.6318 10.3682 11.3333 10 11.3333ZM17.6667 11.5C17.9428 11.5 18.1667 11.7238 18.1667 12C18.1667 12.2761 17.9428 12.5 17.6667 12.5H12.1667C11.8905 12.5 11.6667 12.2761 11.6667 12C11.6667 11.7238 11.8905 11.5 12.1667 11.5H17.6667ZM14 6.66666C14.5595 6.66666 15.0382 7.01143 15.236 7.49999H17.6667C17.9428 7.49999 18.1667 7.72385 18.1667 7.99999C18.1667 8.27613 17.9428 8.49999 17.6667 8.49999H15.236C15.0382 8.98855 14.5595 9.33332 14 9.33332C13.2636 9.33332 12.6667 8.73637 12.6667 7.99999C12.6667 7.26361 13.2636 6.66666 14 6.66666ZM14 7.33332C13.6318 7.33332 13.3333 7.6318 13.3333 7.99999C13.3333 8.36818 13.6318 8.66666 14 8.66666C14.3682 8.66666 14.6667 8.36818 14.6667 7.99999C14.6667 7.6318 14.3682 7.33332 14 7.33332ZM11.8333 7.49999C12.1095 7.49999 12.3333 7.72385 12.3333 7.99999C12.3333 8.27613 12.1095 8.49999 11.8333 8.49999H6.33334C6.0572 8.49999 5.83334 8.27613 5.83334 7.99999C5.83334 7.72385 6.0572 7.49999 6.33334 7.49999H11.8333Z" fill="currentColor"/>
</svg>
