<svg width="24" height="24" viewBox="0 0 24 24" fill="none" xmlns="http://www.w3.org/2000/svg">
<path d="M14.2759 8.98259C14.471 8.78728 14.7871 8.78759 14.9819 8.98325C15.1767 9.17892 15.1765 9.49588 14.9814 9.69125L12.7067 11.9684L15.0443 14.3088C15.2393 14.5041 15.2397 14.8211 15.0449 15.0168C14.8501 15.2125 14.5339 15.2128 14.3387 15.0174L12 12.676L9.66129 15.0174C9.46615 15.2128 9.15006 15.2124 8.95524 15.0168C8.76042 14.8211 8.76062 14.5041 8.95572 14.3088L11.2931 11.9684L9.01855 9.69125C8.82344 9.49588 8.82325 9.17892 9.01806 8.98325C9.21289 8.78761 9.52898 8.78727 9.72412 8.98259L12 11.2609L14.2759 8.98259Z" fill="currentColor"/>
<path d="M12 5.33334C15.6819 5.33334 18.6666 8.31813 18.6667 12C18.6667 15.6819 15.6819 18.6667 12 18.6667C8.3181 18.6667 5.33333 15.6819 5.33333 12C5.33335 8.31813 8.31811 5.33334 12 5.33334ZM12 6.33334C8.87039 6.33334 6.33335 8.87042 6.33333 12C6.33333 15.1296 8.87038 17.6667 12 17.6667C15.1296 17.6667 17.6667 15.1296 17.6667 12C17.6666 8.87042 15.1296 6.33334 12 6.33334Z" fill="currentColor"/>
</svg>
