<svg width="24" height="24" viewBox="0 0 24 24" fill="none" xmlns="http://www.w3.org/2000/svg">
<path d="M5.2734 6.86761C5.62222 6.86764 5.92823 7.10029 6.02173 7.43649L8.52824 16.4514C8.62339 16.7936 8.36611 17.1324 8.01104 17.1324C7.76582 17.1324 7.55178 16.9661 7.491 16.7284L6.79193 13.9955H3.72029L3.0067 16.7461C2.9477 16.9735 2.74255 17.1324 2.5077 17.1324C2.16667 17.1324 1.91966 16.807 2.01104 16.4783L4.5249 7.43649C4.6184 7.10026 4.92454 6.86761 5.2734 6.86761ZM11.9564 6.86761C13.8475 6.86762 15.1084 7.63783 15.1084 9.87838C15.1084 12.049 13.8475 13.0572 12.0137 13.0572H10.6268V16.5993C10.6267 16.8937 10.3882 17.1324 10.0939 17.1324C9.79955 17.1324 9.561 16.8937 9.56097 16.5993V7.2624C9.56098 7.04437 9.73764 6.86761 9.95559 6.86761H11.9564ZM18.8562 6.86761C20.7473 6.86762 22.0082 7.63783 22.0082 9.87838C22.0082 12.049 20.7473 13.0572 18.9135 13.0572H17.5266V16.5993C17.5265 16.8937 17.288 17.1324 16.9937 17.1324C16.6993 17.1324 16.4608 16.8937 16.4608 16.5993V7.2624C16.4608 7.04437 16.6374 6.86761 16.8554 6.86761H18.8562ZM5.23315 7.91782C4.96953 9.12214 4.69448 10.2285 4.39648 11.3909L3.98399 12.9593H6.52841L6.12727 11.3909C5.81781 10.2285 5.55415 9.10814 5.27908 7.91782H5.23315ZM10.6268 12.007H11.8761C13.3546 12.007 14.0538 11.3488 14.0538 9.87838C14.0538 8.39403 13.3088 7.91782 11.8303 7.91782H10.6268V12.007ZM17.5266 12.007H18.7759C20.2544 12.007 20.9536 11.3488 20.9536 9.87838C20.9536 8.39403 20.2086 7.91782 18.7301 7.91782H17.5266V12.007Z" fill="currentColor"/>
</svg>
