<svg width="24" height="24" viewBox="0 0 24 24" fill="none" xmlns="http://www.w3.org/2000/svg">
<path d="M12 6.5C12 6.77614 11.7761 7 11.5 7H7.33333C7.14924 7 7 7.14924 7 7.33333V16.6667C7 16.8508 7.14924 17 7.33333 17H16.6667C16.8508 17 17 16.8508 17 16.6667V12.5C17 12.2239 17.2239 12 17.5 12C17.7761 12 18 12.2239 18 12.5V16.6667C18 17.38 17.4398 17.9625 16.7354 17.9982L16.6667 18H7.33333L7.26465 17.9982C6.58294 17.9636 6.03638 17.4171 6.00179 16.7354L6 16.6667V7.33333C6 6.59695 6.59695 6 7.33333 6H11.5C11.7761 6 12 6.22386 12 6.5Z" fill="currentColor"/>
<path d="M16.9851 6.00097C17.4204 5.98004 17.7993 6.29978 17.8517 6.73242L17.8557 6.77604L17.9988 8.84977C18.0178 9.12523 17.8098 9.36397 17.5343 9.38297C17.2588 9.40193 17.0201 9.19392 17.0011 8.91845L16.92 7.74527L13.3795 11.8761C13.1998 12.0858 12.8842 12.11 12.6746 11.9303C12.4649 11.7506 12.4407 11.4351 12.6204 11.2254L16.1679 7.08642L14.8831 7.215C14.6083 7.24248 14.3632 7.04199 14.3357 6.76725C14.3082 6.49249 14.5087 6.24738 14.7835 6.21988L16.9415 6.00406L16.9851 6.00097Z" fill="currentColor"/>
</svg>
