<svg width="24" height="24" viewBox="0 0 24 24" fill="none" xmlns="http://www.w3.org/2000/svg">
<path d="M7.73493 13.9184C8.01107 13.9184 8.23493 14.1423 8.23493 14.4184V16.1676H9.98575C10.2619 16.1676 10.4857 16.3915 10.4857 16.6676C10.4857 16.9437 10.2619 17.1676 9.98575 17.1676H8.23493V18.9184C8.23493 19.1946 8.01106 19.4184 7.73493 19.4184C7.45879 19.4184 7.23494 19.1946 7.23493 18.9184V17.1676H5.48575C5.20962 17.1676 4.98576 16.9437 4.98575 16.6676C4.98575 16.3915 5.20961 16.1676 5.48575 16.1676H7.23493V14.4184C7.23493 14.1423 7.45879 13.9184 7.73493 13.9184ZM8.91023 5.44447C8.88732 4.83256 9.52261 4.39738 10.0915 4.65915L17.3108 7.98125C17.8913 8.24839 17.9674 9.04251 17.4483 9.41517L15.7476 10.6362L18.8578 14.9687C19.1262 15.3426 19.0408 15.8632 18.6669 16.1316L16.7714 17.4925C16.3975 17.7608 15.8769 17.6752 15.6085 17.3014L12.4983 12.969L11.0681 13.9957C10.549 14.3683 9.82096 14.0421 9.75349 13.4067L8.91446 5.5042L8.91023 5.44447ZM10.6874 12.7314C10.7009 12.8585 10.8465 12.9237 10.9504 12.8492L12.5919 11.6707C12.6667 11.6171 12.7708 11.6342 12.8245 11.7089L16.2264 16.4476C16.2801 16.5224 16.3843 16.5395 16.459 16.4858L17.8129 15.5137C17.8877 15.46 17.9048 15.3559 17.8511 15.2811L14.4492 10.5424C14.3955 10.4677 14.4126 10.3635 14.4874 10.3098L16.3998 8.93703C16.5037 8.86251 16.4884 8.70366 16.3723 8.65023L10.2061 5.8125C10.0886 5.75844 9.957 5.85292 9.97065 5.9815L10.6874 12.7314Z" fill="currentColor"/>
</svg>
