<svg width="24" height="24" viewBox="0 0 24 24" fill="none" xmlns="http://www.w3.org/2000/svg">
<path d="M11.5 6.00005C11.7761 6.00005 12 6.22391 12 6.50005C12 6.77615 11.7761 7.00005 11.5 7.00005H7.33333C7.14924 7.00005 7 7.14929 7 7.33338V16.6667C7.00004 16.8508 7.14927 17 7.33333 17H16.6667C16.8507 17 17 16.8508 17 16.6667V12.5481C17 12.2719 17.2239 12.0481 17.5 12.0481C17.7761 12.0481 18 12.2718 18 12.5479V16.6667C18 17.38 17.4398 17.9625 16.7354 17.9983L16.6667 18H7.33333L7.26465 17.9983C6.58297 17.9637 6.03642 17.4171 6.00179 16.7354L6 16.6667V7.33338C6 6.597 6.59695 6.00005 7.33333 6.00005H11.5Z" fill="currentColor"/>
<path d="M17.0011 6.22189C17.1547 5.99244 17.4654 5.93096 17.6948 6.08452C17.9242 6.23813 17.9858 6.54875 17.8322 6.77821L13.4258 13.3624C13.177 13.7339 12.6402 13.7602 12.3564 13.4146L9.78011 10.2756C9.60496 10.0622 9.63605 9.74702 9.84945 9.57183C10.0629 9.39666 10.378 9.42772 10.5532 9.64116L12.8444 12.433L17.0011 6.22189Z" fill="currentColor"/>
</svg>
