<svg width="24" height="24" viewBox="0 0 24 24" fill="none" xmlns="http://www.w3.org/2000/svg">
<path d="M17.3231 10.9108C18.1631 11.3949 18.1631 12.6052 17.3231 13.0893L9.67647 17.4963C8.8496 17.9728 7.81922 17.3939 7.78723 16.4521L7.78646 16.407L8.73147 16.407C8.73147 16.649 8.99397 16.8003 9.20397 16.6793L16.8506 12.2723C17.0606 12.1513 17.0606 11.8488 16.8506 11.7277L9.20397 7.32074C8.99398 7.19972 8.73151 7.35094 8.73147 7.59297L7.78646 7.59297L7.78723 7.54783C7.81877 6.62106 8.81716 6.04567 9.63694 6.48181L9.67647 6.50377L17.3231 10.9108ZM8.73147 16.407L7.78646 16.407L7.78646 7.59297L8.73147 7.59297L8.73147 16.407Z" fill="currentColor"/>
</svg>
