<svg width="24" height="24" viewBox="0 0 24 24" fill="none" xmlns="http://www.w3.org/2000/svg">
<path d="M10.3575 17.528C10.3575 17.7887 10.1443 18 9.88129 18C9.61829 18 9.40507 17.7887 9.40507 17.528V7.58313L6.67545 10.8295C6.50706 11.0297 6.2067 11.0568 6.00466 10.8899C5.80266 10.723 5.77539 10.4254 5.94374 10.2251L9.2347 6.31136C9.61488 5.85923 10.3575 6.12565 10.3575 6.71418V17.528ZM17.998 13.1613C18.1989 13.3296 18.2239 13.6275 18.054 13.8265L14.6829 17.7758C14.3008 18.2233 13.5632 17.9556 13.5632 17.3694V6.47196C13.5632 6.21131 13.7764 6.00001 14.0394 6C14.3024 6 14.5156 6.2113 14.5156 6.47196V16.5101L17.327 13.2169C17.4968 13.0179 17.7972 12.993 17.998 13.1613Z" fill="currentColor"/>
</svg>
