<svg width="24" height="24" viewBox="0 0 24 24" fill="none" xmlns="http://www.w3.org/2000/svg">
<path d="M11.1667 5.16666C13.4036 5.16666 15.3375 6.46295 16.259 8.3452C18.8147 8.52095 20.8333 10.6497 20.8333 13.25C20.8333 15.9376 18.677 18.121 16 18.1655V18.1667H7.33334V18.1655C7.30563 18.1661 7.27785 18.1667 7.25 18.1667C4.99484 18.1667 3.16667 16.3385 3.16667 14.0833C3.16667 12.4475 4.12858 11.0365 5.51758 10.3848C5.74625 7.46484 8.18803 5.16666 11.1667 5.16666ZM11.1667 6.16666C8.71417 6.16666 6.70272 8.05925 6.51449 10.4629L6.46908 11.043L5.94239 11.29C4.89122 11.7833 4.16667 12.8497 4.16667 14.0833C4.16667 15.7862 5.54713 17.1667 7.25 17.1667C7.26586 17.1667 7.28292 17.1663 7.31332 17.1657L8.33334 17.1453V17.1667H15.9243L15.9834 17.1657C18.1157 17.1302 19.8333 15.3907 19.8333 13.25C19.8333 11.179 18.2252 9.48287 16.1903 9.34293L15.6146 9.30321L15.3608 8.78482C14.6008 7.23226 13.0073 6.16666 11.1667 6.16666ZM12.0103 9.66714C12.0138 9.66724 12.0175 9.66709 12.021 9.66731C12.1157 9.66148 12.2124 9.69605 12.283 9.77017L13.9499 11.5202C14.0767 11.6535 14.0715 11.8644 13.9383 11.9914C13.805 12.1183 13.5941 12.113 13.4671 11.9798L12.3335 10.7894V14.8333C12.3335 15.0174 12.1842 15.1666 12.0002 15.1667C11.8161 15.1666 11.6668 15.0174 11.6668 14.8333V10.833L10.5747 11.9798C10.4478 12.113 10.2368 12.1182 10.1035 11.9914C9.97028 11.8644 9.96511 11.6535 10.092 11.5202L11.7588 9.77017C11.7592 9.76972 11.7597 9.76915 11.7601 9.76871C11.7659 9.76266 11.7722 9.75689 11.7785 9.75129C11.7807 9.74934 11.7829 9.74732 11.7852 9.74543C11.7861 9.74461 11.7871 9.74364 11.7881 9.74283L11.8101 9.72623C11.8106 9.72587 11.8112 9.72544 11.8117 9.72509C11.8165 9.72178 11.8217 9.71871 11.8267 9.71565C11.8309 9.71305 11.8352 9.71023 11.8395 9.70784C11.8547 9.69947 11.8709 9.69246 11.8874 9.68651C11.8912 9.68512 11.8952 9.68352 11.8991 9.68228C11.9047 9.6805 11.9106 9.67905 11.9163 9.67756C11.9209 9.67638 11.9256 9.67513 11.9302 9.67414C11.9353 9.67305 11.9407 9.67223 11.946 9.67138C11.9506 9.67061 11.9554 9.66966 11.9601 9.6691L11.966 9.66845C11.97 9.66805 11.9742 9.66806 11.9782 9.6678C11.9839 9.66742 11.9898 9.6669 11.9956 9.66682C11.9971 9.66679 11.9987 9.66666 12.0002 9.66666C12.0035 9.66667 12.007 9.66704 12.0103 9.66714Z" fill="currentColor"/>
</svg>
