<svg width="24" height="24" viewBox="0 0 24 24" fill="none" xmlns="http://www.w3.org/2000/svg">
<path d="M18.7432 12.7848C19.0869 12.7848 19.2869 13.1804 19.0873 13.4653L17.7313 15.4008V18.5689C17.7313 18.8983 17.3828 19.1056 17.101 18.9439L15.9673 18.2929C15.8344 18.2166 15.7522 18.0732 15.7522 17.9178V15.4031L14.3651 13.4692C14.1611 13.1848 14.3606 12.7848 14.7064 12.7848H18.7432ZM11.7634 5C15.5727 5 18.5265 7.72247 18.5265 11.5277C18.5265 11.8016 18.3022 12.0235 18.0255 12.0235C17.7488 12.0235 17.5245 11.8016 17.5245 11.5277C17.5245 8.30521 15.0555 5.99156 11.7634 5.99156C8.48938 5.99156 5.83527 8.61817 5.83527 11.8583C5.83527 14.6442 7.79033 16.6983 10.4715 17.1964C11.3041 17.3511 12.1429 17.315 12.8309 16.9789C13.3233 16.7383 13.5069 16.4467 13.5675 16.1524C13.6353 15.8233 13.5656 15.4096 13.3818 14.9244C13.2846 14.6681 13.4158 14.3823 13.6748 14.2862C13.9339 14.19 14.2226 14.3198 14.3198 14.5762C14.529 15.1284 14.6726 15.7522 14.5492 16.3506C14.4187 16.984 14.0065 17.5103 13.2745 17.868C12.3263 18.3312 11.2473 18.3493 10.2866 18.1709C7.18552 17.5948 4.83333 15.1735 4.83333 11.8583C4.83333 8.07055 7.93603 5 11.7634 5ZM16.423 15.0621C16.4758 15.1358 16.5043 15.2248 16.5043 15.3161V17.7623L16.9791 18.0456V15.3156C16.9791 15.226 17.0065 15.1385 17.0577 15.0655L18.1672 13.4818H15.2894L16.423 15.0621ZM15.4587 9.3939C15.9081 9.3939 16.2723 9.75435 16.2723 10.1991C16.2723 10.6437 15.9081 11.0042 15.4587 11.0042C15.0094 11.0042 14.6451 10.6437 14.6451 10.1991C14.6451 9.75436 15.0094 9.39391 15.4587 9.3939ZM8.89539 8.66766C9.34474 8.66766 9.70914 9.02828 9.70914 9.47298C9.70911 9.91766 9.34473 10.2781 8.89539 10.2781C8.44606 10.2781 8.08182 9.91764 8.0818 9.47298C8.0818 9.02829 8.44605 8.66768 8.89539 8.66766ZM12.4234 7.18113C12.8727 7.18113 13.2371 7.54159 13.2371 7.98629C13.2371 8.43097 12.8727 8.79144 12.4234 8.79144C11.9741 8.79141 11.6098 8.43095 11.6098 7.98629C11.6098 7.54161 11.974 7.18116 12.4234 7.18113Z" fill="currentColor"/>
</svg>
