<svg width="24" height="24" viewBox="0 0 24 24" fill="none" xmlns="http://www.w3.org/2000/svg">
<path d="M16.0022 5.66666C16.6764 5.66669 17.0693 6.44071 16.6787 6.99945L13.9884 10.8478L13.9484 17.4933C13.9444 18.1415 13.2531 18.5434 12.7017 18.2181L10.5016 16.9199C10.2457 16.7689 10.0883 16.4909 10.0882 16.1901V10.8938L7.32562 7.00472C6.92919 6.44664 7.32132 5.6667 7.9984 5.66666H16.0022ZM11.0843 15.9975C11.0843 16.0565 11.1154 16.111 11.1662 16.141L12.8292 17.1223C12.8845 17.155 12.9544 17.1154 12.9548 17.0511L12.9927 10.7885L12.9956 10.7237C13.0079 10.5732 13.0597 10.4285 13.1462 10.3047L15.589 6.81043C15.6276 6.7552 15.5881 6.67936 15.5207 6.67936H8.48469C8.41701 6.67936 8.37755 6.75577 8.41675 6.81095L10.9272 10.3453C11.0293 10.4891 11.0843 10.6619 11.0843 10.8393V15.9975Z" fill="currentColor"/>
</svg>
