<svg width="38" height="38" viewBox="0 0 38 38" fill="none" xmlns="http://www.w3.org/2000/svg">
<g clip-path="url(#clip0_324_1683)">
<path d="M6.34427 7.1447V28.4287C6.34427 29.8894 7.52834 31.0734 8.98897 31.0734H25.7006C27.6482 31.0734 29.2269 29.4946 29.2269 27.5471V13.3578L21.8455 4.5H8.98897C7.52834 4.5 6.34427 5.68408 6.34427 7.1447Z" fill="#F5F5F5"/>
<path d="M19.2989 11.207H9.56621V13.2939H19.2989V11.207Z" fill="#E2E2E2"/>
<path d="M19.2989 15.6992H9.56621V17.7861H19.2989V15.6992Z" fill="#E2E2E2"/>
<path d="M19.2989 20.1934H9.56621V22.2802H19.2989V20.1934Z" fill="#E2E2E2"/>
<path d="M21.8449 4.5V11.5947C21.8449 12.5684 22.6342 13.3578 23.608 13.3578H29.2264L25.8711 9.09925L21.8449 4.5Z" fill="#E2E2E2"/>
<path d="M28.9987 18.3027H19.0908C17.6302 18.3027 16.4461 19.4868 16.4461 20.9474V30.8554C16.4461 32.316 17.6302 33.5001 19.0908 33.5001H28.9987C30.4594 33.5001 31.6434 32.316 31.6434 30.8554V20.9474C31.6434 19.4868 30.4594 18.3027 28.9987 18.3027Z" fill="#DF4023"/>
<path d="M29.2114 18.3027C30.5552 18.3027 31.6445 19.3921 31.6445 20.7359L16.4463 20.7359C16.4463 19.3921 17.5357 18.3027 18.8795 18.3027L29.2114 18.3027Z" fill="#DF4023"/>
<path d="M31.657 31.0688C31.657 32.4126 30.5677 33.502 29.2239 33.502L29.2239 18.3038C30.5677 18.3038 31.657 19.3931 31.657 20.7369L31.657 31.0688Z" fill="#F85836"/>
<path d="M18.8922 33.502C17.5484 33.502 16.459 32.4126 16.459 31.0688L31.6572 31.0688C31.6572 32.4126 30.5679 33.502 29.2241 33.502L18.8922 33.502Z" fill="#C82912"/>
<path d="M21.8324 29.9001H23.0595V26.9486H24.2338C25.9264 26.9486 27.1747 26.1658 27.1747 24.4732C27.1747 22.7065 25.9264 22.1035 24.1914 22.1035H21.8324V29.9001ZM23.0595 25.9542V23.0979H24.0751C25.3128 23.0979 25.9581 23.4364 25.9581 24.4732C25.9581 25.4782 25.3551 25.9542 24.128 25.9542H23.0595Z" fill="white"/>
</g>
<defs>
<clipPath id="clip0_324_1683">
<rect width="25.3115" height="29" fill="white" transform="translate(6.34427 4.5)"/>
</clipPath>
</defs>
</svg>
