<svg width="38" height="38" viewBox="0 0 38 38" fill="none" xmlns="http://www.w3.org/2000/svg">
<path d="M8.84561 9.0957H31.6356V33.5H10.8456C9.74104 33.5 8.84561 32.6046 8.84561 31.5V9.0957Z" fill="#A70700"/>
<path d="M10.8006 4.49805H27.6806C28.7852 4.49805 29.6806 5.39348 29.6806 6.49805V25.1367H10.8006V4.49805Z" fill="#E92930"/>
<path d="M14.92 10.4451L15.8599 16.387L17.5803 20.4033L24.894 18.6607L25.561 12.264L21.8928 9.23242L14.92 10.4451Z" fill="white"/>
<path d="M15.8616 10.9638L16.3351 11.8109L20.6474 10.9638L22.3955 12.7056L24.3187 12.3077L21.4669 9.89844L15.8616 10.9638Z" fill="#E92930"/>
<path d="M16.6705 13.6613L17.0953 14.4644L18.987 14.0287L19.7458 15.1888L21.795 14.5689L20.3036 12.7988L16.6705 13.6613Z" fill="#E92930"/>
<path d="M17.3462 16.7318L17.7938 17.6176L19.5699 17.1209L19.0905 16.2559L17.3462 16.7318Z" fill="#E92930"/>
<path d="M6.36443 7.22927L10.8009 4.49805V25.1367L6.36443 27.8679V7.22927Z" fill="#EC817D"/>
<path d="M22.6947 31.3164V26.9004H24.0327C25.0167 26.9004 25.7187 27.2364 25.7187 28.2324C25.7187 29.1984 25.0167 29.6424 24.0567 29.6424H23.3907V31.3164H22.6947ZM23.3907 29.0844H23.9907C24.6987 29.0844 25.0347 28.8144 25.0347 28.2324C25.0347 27.6504 24.6687 27.4584 23.9667 27.4584H23.3907V29.0844Z" fill="white"/>
<path d="M18.7162 31.3164V26.9004H19.4122V28.9884H19.4302L21.1102 26.9004H21.8842L20.5162 28.6044L22.1122 31.3164H21.3382L20.0902 29.1564L19.4122 29.9844V31.3164H18.7162Z" fill="white"/>
<path d="M16.3258 31.3944C15.7198 31.3944 15.1558 31.1544 14.7538 30.7464L15.1618 30.2664C15.4798 30.5844 15.9118 30.7884 16.3378 30.7884C16.8718 30.7884 17.1718 30.5364 17.1718 30.1644C17.1718 29.7624 16.8718 29.6364 16.4638 29.4564L15.8518 29.1924C15.4258 29.0124 14.9518 28.6764 14.9518 28.0344C14.9518 27.3384 15.5638 26.8164 16.4038 26.8164C16.9198 26.8164 17.4058 27.0324 17.7418 27.3744L17.3758 27.8184C17.0998 27.5724 16.7938 27.4224 16.4038 27.4224C15.9538 27.4224 15.6598 27.6384 15.6598 27.9924C15.6598 28.3704 16.0138 28.5144 16.3738 28.6584L16.9798 28.9164C17.5018 29.1384 17.8798 29.4624 17.8798 30.1104C17.8798 30.8184 17.2918 31.3944 16.3258 31.3944Z" fill="white"/>
</svg>
