<svg width="38" height="38" viewBox="0 0 38 38" fill="none" xmlns="http://www.w3.org/2000/svg">
<g clip-path="url(#clip0_324_1757)">
<path d="M6.34427 7.1447V28.4287C6.34427 29.8894 7.52834 31.0734 8.98897 31.0734H25.7006C27.6482 31.0734 29.2269 29.4946 29.2269 27.5471V13.3578L21.8455 4.5H8.98897C7.52834 4.5 6.34427 5.68408 6.34427 7.1447Z" fill="#F5F5F5"/>
<path d="M19.2988 11.207H9.56619V13.2939H19.2988V11.207Z" fill="#E2E2E2"/>
<path d="M19.2988 15.6992H9.56619V17.7861H19.2988V15.6992Z" fill="#E2E2E2"/>
<path d="M19.2988 20.1934H9.56619V22.2802H19.2988V20.1934Z" fill="#E2E2E2"/>
<path d="M21.8448 4.5V11.5947C21.8448 12.5684 22.6342 13.3578 23.608 13.3578H29.2264L25.8711 9.09925L21.8448 4.5Z" fill="#E2E2E2"/>
<path d="M28.9988 18.3027H19.0908C17.6302 18.3027 16.4461 19.4868 16.4461 20.9474V30.8554C16.4461 32.316 17.6302 33.5001 19.0908 33.5001H28.9988C30.4594 33.5001 31.6435 32.316 31.6435 30.8554V20.9474C31.6435 19.4868 30.4594 18.3027 28.9988 18.3027Z" fill="#888D98"/>
<path d="M29.2114 18.3027C30.5552 18.3027 31.6445 19.3921 31.6445 20.7359L16.4463 20.7359C16.4463 19.3921 17.5357 18.3027 18.8795 18.3027L29.2114 18.3027Z" fill="#888D98"/>
<path d="M31.657 31.0688C31.657 32.4126 30.5677 33.502 29.2239 33.502L29.2239 18.3038C30.5677 18.3038 31.657 19.3931 31.657 20.7369L31.657 31.0688Z" fill="#ACB1BC"/>
<path d="M18.8922 33.502C17.5484 33.502 16.459 32.4126 16.459 31.0688L31.6572 31.0688C31.6572 32.4126 30.5679 33.502 29.2241 33.502L18.8922 33.502Z" fill="#707786"/>
<path d="M23.4086 29.9001H24.6569V23.1402H26.9419V22.1035H21.1342V23.1402H23.4086V29.9001Z" fill="white"/>
</g>
<defs>
<clipPath id="clip0_324_1757">
<rect width="25.3115" height="29" fill="white" transform="translate(6.34427 4.5)"/>
</clipPath>
</defs>
</svg>
