<svg width="38" height="38" viewBox="0 0 38 38" fill="none" xmlns="http://www.w3.org/2000/svg">
<g clip-path="url(#clip0_324_1799)">
<path d="M6.34427 7.1447V28.4287C6.34427 29.8894 7.52834 31.0734 8.98897 31.0734H25.7006C27.6482 31.0734 29.2269 29.4946 29.2269 27.5471V13.3578L21.8455 4.5H8.98897C7.52834 4.5 6.34427 5.68408 6.34427 7.1447Z" fill="#F5F5F5"/>
<path d="M19.2988 11.207H9.56619V13.2939H19.2988V11.207Z" fill="#E2E2E2"/>
<path d="M19.2988 15.6992H9.56619V17.7861H19.2988V15.6992Z" fill="#E2E2E2"/>
<path d="M19.2988 20.1934H9.56619V22.2802H19.2988V20.1934Z" fill="#E2E2E2"/>
<path d="M21.8448 4.5V11.5947C21.8448 12.5684 22.6342 13.3578 23.608 13.3578H29.2264L25.8711 9.09925L21.8448 4.5Z" fill="#E2E2E2"/>
<path d="M28.9988 18.3027H19.0908C17.6302 18.3027 16.4461 19.4868 16.4461 20.9474V30.8554C16.4461 32.316 17.6302 33.5001 19.0908 33.5001H28.9988C30.4594 33.5001 31.6435 32.316 31.6435 30.8554V20.9474C31.6435 19.4868 30.4594 18.3027 28.9988 18.3027Z" fill="#4A4A4A"/>
<path d="M29.211 18.3027C30.5548 18.3027 31.6441 19.3921 31.6441 20.7359L16.4459 20.7359C16.4459 19.3921 17.5352 18.3027 18.879 18.3027L29.211 18.3027Z" fill="#4A4A4A"/>
<path d="M31.6566 31.0688C31.6566 32.4126 30.5672 33.502 29.2235 33.502L29.2235 18.3038C30.5672 18.3038 31.6566 19.3931 31.6566 20.7369L31.6566 31.0688Z" fill="#797979"/>
<path d="M18.8917 33.502C17.548 33.502 16.4586 32.4126 16.4586 31.0688L31.6568 31.0688C31.6568 32.4126 30.5675 33.502 29.2237 33.502L18.8917 33.502Z" fill="#1A1A1A"/>
<path d="M23.4387 28.8559V30.0746H24.6573V28.8559H23.4387ZM26.5894 24.641C26.7678 24.3201 26.857 23.9693 26.857 23.5888C26.857 22.931 26.6033 22.3701 26.0961 21.9065C25.5887 21.4428 24.909 21.2109 24.0569 21.2109C23.2523 21.2109 22.6054 21.427 22.116 21.8589C21.6265 22.2909 21.3322 22.9132 21.2332 23.7256L22.3329 23.8563C22.428 23.25 22.6282 22.8041 22.9333 22.5188C23.2385 22.2334 23.6189 22.0908 24.0747 22.0908C24.5463 22.0908 24.9446 22.2483 25.2697 22.5633C25.5946 22.8784 25.7572 23.2441 25.7572 23.6602C25.7572 23.8901 25.7016 24.1022 25.5907 24.2963C25.4797 24.4905 25.239 24.7511 24.8684 25.078C24.4978 25.405 24.2413 25.6537 24.0985 25.8241C23.9043 26.058 23.7636 26.2898 23.6765 26.5196C23.5576 26.8248 23.4982 27.1875 23.4982 27.6075C23.4982 27.6789 23.5001 27.7858 23.5041 27.9286H24.5325C24.5404 27.5005 24.5701 27.1913 24.6217 27.0012C24.6731 26.811 24.7525 26.6425 24.8595 26.4958C24.9665 26.3493 25.1944 26.1213 25.5432 25.8122C26.0623 25.3525 26.4111 24.9621 26.5894 24.641Z" fill="white"/>
</g>
<defs>
<clipPath id="clip0_324_1799">
<rect width="25.3115" height="29" fill="white" transform="translate(6.34427 4.5)"/>
</clipPath>
</defs>
</svg>
