<svg width="38" height="38" viewBox="0 0 38 38" fill="none" xmlns="http://www.w3.org/2000/svg">
<path d="M6.34744 7.1447V28.4287C6.34744 29.8894 7.53138 31.0734 8.99184 31.0734H25.7016C27.6489 31.0734 29.2274 29.4946 29.2274 27.5471V13.3578L21.8469 4.5H8.99184C7.53138 4.5 6.34744 5.68408 6.34744 7.1447Z" fill="#F5F5F5"/>
<path d="M19.2409 11.207H9.44159V13.2939H19.2409V11.207Z" fill="#E2E2E2"/>
<path d="M19.2409 15.6992H9.44159V17.7861H19.2409V15.6992Z" fill="#E2E2E2"/>
<path d="M19.2409 20.1934H9.44159V22.2802H19.2409V20.1934Z" fill="#E2E2E2"/>
<path d="M21.8043 4.5V11.5947C21.8043 12.5684 22.5991 13.3578 23.5795 13.3578H29.2364L25.8581 9.09925L21.8043 4.5Z" fill="#E2E2E2"/>
<path d="M28.9761 18.3027H19.0003C17.5297 18.3027 16.3375 19.4868 16.3375 20.9474V30.8554C16.3375 32.316 17.5297 33.5001 19.0003 33.5001H28.9761C30.4467 33.5001 31.6389 32.316 31.6389 30.8554V20.9474C31.6389 19.4868 30.4467 18.3027 28.9761 18.3027Z" fill="#109968"/>
<path d="M29.2066 18.3027C30.5504 18.3027 31.6398 19.3921 31.6398 20.7359L16.3374 20.7359C16.3374 19.3921 17.4268 18.3027 18.7706 18.3027L29.2066 18.3027Z" fill="#109968"/>
<path d="M31.6523 31.0502C31.6523 32.4032 30.5555 33.5 29.2025 33.5L29.2025 18.3018C30.5555 18.3018 31.6523 19.3986 31.6523 20.7516L31.6523 31.0502Z" fill="#38B27F"/>
<path d="M18.7834 33.5C17.4396 33.5 16.3502 32.4107 16.3502 31.0669L31.6526 31.0669C31.6526 32.4107 30.5632 33.5 29.2194 33.5L18.7834 33.5Z" fill="#007D53"/>
<path d="M21.7916 29.9001H26.542V28.8528H23.0271V26.3456H25.903V25.3089H23.0271V23.1402H26.4249V22.1035H21.7916V29.9001Z" fill="white"/>
</svg>
