<svg width="24" height="24" viewBox="0 0 24 24" fill="none" xmlns="http://www.w3.org/2000/svg">
<path d="M15.235 5C15.9862 5 16.5952 5.60658 16.5952 6.35484V12.828C16.5952 13.0774 16.3922 13.2796 16.1418 13.2796C15.8914 13.2796 15.6884 13.0774 15.6884 12.828V6.35484C15.6884 6.10542 15.4854 5.90323 15.235 5.90323H7.52692C7.2765 5.90323 7.0735 6.10542 7.0735 6.35484V15.2366H11.1494C11.9334 14.3189 13.133 13.7312 14.4793 13.7312C16.0561 13.7312 17.4324 14.537 18.1745 15.7355C18.3863 16.0775 18.3863 16.5031 18.1745 16.8451C17.4324 18.0436 16.0561 18.8495 14.4793 18.8495C12.9025 18.8495 11.5262 18.0436 10.7841 16.8451C10.6504 16.6293 10.6011 16.3802 10.6362 16.1398H7.0735V17.6452C7.0735 17.8946 7.2765 18.0968 7.52692 18.0968H11.1542C11.4047 18.0968 11.6077 18.299 11.6077 18.5484C11.6077 18.7978 11.4047 19 11.1542 19H7.52692C6.77567 19 6.16667 18.3934 6.16667 17.6452V6.35484C6.16667 5.60658 6.77568 5 7.52692 5H15.235ZM14.4793 14.5843C13.9994 14.5843 13.5391 14.764 13.1998 15.084C12.8604 15.4039 12.6698 15.8378 12.6698 16.2903C12.6698 16.7428 12.8604 17.1767 13.1998 17.4967C13.5391 17.8166 13.9994 17.9964 14.4793 17.9964C14.9592 17.9964 15.4195 17.8166 15.7588 17.4967C16.0981 17.1767 16.2888 16.7428 16.2888 16.2903C16.2888 15.8378 16.0981 15.4039 15.7588 15.084C15.4195 14.764 14.9592 14.5843 14.4793 14.5843ZM14.4793 15.2667C14.7672 15.2667 15.0433 15.3745 15.2469 15.5664C15.4505 15.7584 15.565 16.0188 15.565 16.2903C15.565 16.5618 15.4505 16.8222 15.2469 17.0142C15.0433 17.2061 14.7672 17.3139 14.4793 17.3139C14.1914 17.3139 13.9152 17.2061 13.7116 17.0142C13.508 16.8222 13.3936 16.5618 13.3936 16.2903C13.3936 16.0188 13.508 15.7584 13.7116 15.5664C13.9152 15.3745 14.1914 15.2667 14.4793 15.2667ZM12.5901 6.80645C12.8405 6.80645 13.0435 7.00865 13.0435 7.25806C13.0435 7.50748 12.8405 7.70968 12.5901 7.70968H10.0963C9.84586 7.70968 9.64286 7.50748 9.64286 7.25806C9.64286 7.00865 9.84586 6.80645 10.0963 6.80645H12.5901Z" fill="currentColor"/>
</svg>
