<svg width="24" height="24" viewBox="0 0 24 24" fill="none" xmlns="http://www.w3.org/2000/svg">
<path d="M11.2578 5.61264C14.3414 5.61264 16.8412 8.11238 16.8412 11.196C16.8412 12.6194 16.3082 13.918 15.4313 14.9041L18.1745 17.5293C18.3722 17.722 18.3763 18.0386 18.1836 18.2363C17.9909 18.4341 17.6744 18.4382 17.4766 18.2455L14.7025 15.5902C13.7537 16.335 12.5577 16.7793 11.2578 16.7793C8.17424 16.7793 5.6745 14.2796 5.6745 11.196C5.6745 8.11238 8.17424 5.61264 11.2578 5.61264ZM11.2578 6.61264C8.72653 6.61264 6.6745 8.66467 6.6745 11.196C6.6745 13.7273 8.72653 15.7793 11.2578 15.7793C13.7891 15.7793 15.8412 13.7273 15.8412 11.196C15.8412 8.66467 13.7891 6.61264 11.2578 6.61264Z" fill="currentColor"/>
</svg>
