<svg width="24" height="24" viewBox="0 0 24 24" fill="none" xmlns="http://www.w3.org/2000/svg">
<path d="M6.51432 14.5C6.79838 14.5 7.02865 14.7303 7.02865 15.0143V16.6286C7.02865 16.8179 7.18207 16.9713 7.37142 16.9714H8.98568C9.26973 16.9714 9.5 17.2016 9.5 17.4857C9.5 17.7697 9.26973 18 8.98568 18H7.37142L7.30078 17.9982C6.5996 17.9626 6.03737 17.4004 6.00179 16.6992L6 16.6286V15.0143C6 14.7303 6.23027 14.5 6.51432 14.5Z" fill="currentColor"/>
<path d="M17.4857 14.5C17.7697 14.5 18 14.7303 18 15.0143V16.6286C18 17.3623 17.4238 17.9614 16.6992 17.9982L16.6286 18H15.0143C14.7303 18 14.5 17.7697 14.5 17.4857C14.5 17.2016 14.7303 16.9714 15.0143 16.9714H16.6286C16.8179 16.9713 16.9713 16.8179 16.9714 16.6286V15.0143C16.9714 14.7303 17.2016 14.5 17.4857 14.5Z" fill="currentColor"/>
<path d="M11.668 8.43099C13.3736 8.47417 14.7432 9.8705 14.7432 11.5866L14.742 11.668C14.7253 12.3279 14.5058 12.9373 14.1439 13.4367L15.4235 14.7163C15.6188 14.9116 15.6188 15.2282 15.4235 15.4235C15.2283 15.6187 14.9117 15.6187 14.7165 15.4235L13.4367 14.1439C12.9168 14.5207 12.2777 14.7432 11.5866 14.7432L11.505 14.742C9.82647 14.6995 8.47351 13.3465 8.43099 11.668L8.43001 11.5866C8.43002 9.84329 9.84328 8.43001 11.5866 8.43001L11.668 8.43099ZM11.5866 9.43001C10.3956 9.43001 9.43002 10.3956 9.43001 11.5866C9.43005 12.7776 10.3956 13.7432 11.5866 13.7432C12.7776 13.7431 13.7431 12.7776 13.7432 11.5866C13.7432 10.3956 12.7776 9.43003 11.5866 9.43001Z" fill="currentColor"/>
<path d="M8.98568 6C9.26973 6 9.5 6.23027 9.5 6.51432C9.5 6.79838 9.26973 7.02865 8.98568 7.02865H7.37142C7.18207 7.02865 7.02865 7.18207 7.02865 7.37142V8.98568C7.02865 9.26973 6.79838 9.5 6.51432 9.5C6.23027 9.5 6 9.26973 6 8.98568V7.37142C6.00001 6.61401 6.61401 6.00001 7.37142 6H8.98568Z" fill="currentColor"/>
<path d="M16.6286 6C17.386 6 18 6.61401 18 7.37142V8.98568C18 9.26973 17.7697 9.5 17.4857 9.5C17.2016 9.5 16.9714 9.26973 16.9714 8.98568V7.37142C16.9713 7.18207 16.8179 7.02865 16.6286 7.02865H15.0143C14.7303 7.02865 14.5 6.79838 14.5 6.51432C14.5 6.23027 14.7303 6 15.0143 6H16.6286Z" fill="currentColor"/>
</svg>
