<svg width="24" height="24" viewBox="0 0 24 24" fill="none" xmlns="http://www.w3.org/2000/svg">
<path d="M12.0001 17.8333C11.7239 17.8333 11.5001 17.6095 11.5001 17.3333L11.5001 7.72754L8.85782 10.4328C8.66487 10.6303 8.34816 10.634 8.15063 10.4411C7.9531 10.2481 7.94939 9.93143 8.14232 9.73389L11.4011 6.39763L11.4327 6.36703C11.7538 6.07062 12.2512 6.07348 12.5689 6.37354L12.6002 6.40446L15.8617 9.82146C16.0524 10.0212 16.045 10.3377 15.8453 10.5283C15.6455 10.719 15.3291 10.7116 15.1384 10.5119L12.5001 7.74789L12.5001 17.3333C12.5001 17.6095 12.2762 17.8333 12.0001 17.8333Z" fill="currentColor"/>
</svg>
