<svg width="24" height="24" viewBox="0 0 24 24" fill="none" xmlns="http://www.w3.org/2000/svg">
<path d="M6.04128 17.4368C6.23655 17.6321 6.55305 17.6321 6.74831 17.4368L11.7867 12.3984C12.0471 12.138 12.0471 11.716 11.7867 11.4557L6.89415 6.56311C6.69889 6.36785 6.38238 6.36785 6.18712 6.56311C5.99185 6.75837 5.99185 7.07488 6.18712 7.27014L10.844 11.927L6.04128 16.7298C5.84602 16.925 5.84602 17.2415 6.04128 17.4368Z" fill="#797979"/>
<path d="M12.1645 17.4368C12.3598 17.6321 12.6763 17.6321 12.8716 17.4368L17.91 12.3984C18.1703 12.138 18.1703 11.716 17.91 11.4557L13.0174 6.56311C12.8221 6.36785 12.5056 6.36785 12.3104 6.56311C12.1151 6.75837 12.1151 7.07488 12.3104 7.27014L16.9673 11.927L12.1645 16.7298C11.9693 16.925 11.9693 17.2415 12.1645 17.4368Z" fill="currentColor"/>
</svg>
