<svg width="24" height="24" viewBox="0 0 24 24" fill="none" xmlns="http://www.w3.org/2000/svg">
<path d="M12.5882 17.5841C12.2676 17.9103 11.7441 17.9172 11.415 17.5996L6.81934 13.1624C6.6207 12.9706 6.61517 12.654 6.80697 12.4554C6.99878 12.2567 7.31535 12.2512 7.514 12.443L11.9909 16.7656L16.3934 12.2856C16.5869 12.0887 16.9035 12.0859 17.1004 12.2794C17.2974 12.473 17.3001 12.7895 17.1066 12.9865L12.5882 17.5841Z" fill="currentColor"/>
<path d="M12.5882 11.7508C12.2676 12.077 11.7441 12.0839 11.415 11.7662L6.81934 7.32906C6.6207 7.13725 6.61517 6.82068 6.80697 6.62203C6.99878 6.42339 7.31535 6.41786 7.514 6.60966L11.9909 10.9323L16.3934 6.45227C16.5869 6.25533 16.9035 6.25255 17.1004 6.44609C17.2974 6.63964 17.3001 6.95617 17.1066 7.15312L12.5882 11.7508Z" fill="#666666"/>
</svg>
