<svg width="24" height="24" viewBox="0 0 24 24" fill="none" xmlns="http://www.w3.org/2000/svg">
<path d="M11.2138 5.83334C13.3242 5.83334 15.1486 7.06316 16.0179 8.84889C18.4289 9.01563 20.3333 11.0352 20.3333 13.5021C20.3333 16.0519 18.299 18.1234 15.7736 18.1656V18.1667H7.59748V18.1656C7.57134 18.1661 7.54514 18.1667 7.51887 18.1667C5.39135 18.1667 3.66666 16.4323 3.66666 14.2927C3.66666 12.7408 4.57413 11.4022 5.88451 10.7838C6.10023 8.01367 8.4038 5.83334 11.2138 5.83334ZM11.2138 6.78206C8.90015 6.78206 7.00256 8.5776 6.82498 10.858L6.78214 11.4083L6.28526 11.6427C5.29359 12.1106 4.61006 13.1224 4.61006 14.2927C4.61006 15.9083 5.91238 17.218 7.51887 17.218C7.53382 17.218 7.54992 17.2176 7.5786 17.217L8.54088 17.1977V17.218H15.7022L15.7579 17.217C17.7695 17.1834 19.3899 15.5331 19.3899 13.5021C19.3899 11.5374 17.8729 9.92821 15.9531 9.79545L15.41 9.75777L15.1706 9.26596C14.4536 7.79302 12.9503 6.78206 11.2138 6.78206Z" fill="currentColor"/>
</svg>
