<svg width="24" height="24" viewBox="0 0 24 24" fill="none" xmlns="http://www.w3.org/2000/svg">
<path d="M14.4401 9.05665C14.5943 8.82764 14.9049 8.76684 15.134 8.92091C15.363 9.07506 15.4238 9.38582 15.2697 9.61492L11.6844 14.9432C11.5319 15.1698 11.2264 15.2316 10.998 15.0837C10.9541 15.0559 10.9136 15.0211 10.8787 14.9789L8.75912 12.4041C8.58367 12.191 8.61418 11.8759 8.82731 11.7004C9.0405 11.5249 9.35575 11.5554 9.53125 11.7686L11.2282 13.8299L14.4401 9.05665Z" fill="currentColor"/>
<path d="M12 5.33334C15.6819 5.33334 18.6667 8.31811 18.6667 12C18.6667 15.6819 15.6819 18.6667 12 18.6667C8.3181 18.6667 5.33334 15.6819 5.33334 12C5.33334 8.31811 8.3181 5.33334 12 5.33334ZM12 6.33334C8.87039 6.33334 6.33334 8.8704 6.33334 12C6.33334 15.1296 8.87039 17.6667 12 17.6667C15.1296 17.6667 17.6667 15.1296 17.6667 12C17.6667 8.8704 15.1296 6.33334 12 6.33334Z" fill="currentColor"/>
</svg>
