<svg width="24" height="24" viewBox="0 0 24 24" fill="none" xmlns="http://www.w3.org/2000/svg">
<path d="M17.9584 13.7083C18.2345 13.7083 18.4584 13.9322 18.4584 14.2083C18.4583 14.4844 18.2345 14.7083 17.9584 14.7083H7.42255L10.8618 17.5742C11.0739 17.751 11.1026 18.0663 10.9258 18.2785C10.749 18.4906 10.4337 18.5192 10.2215 18.3424L6.07522 14.8872C5.59622 14.488 5.87848 13.7083 6.50197 13.7083H17.9584ZM13.1284 5.71871C13.3068 5.50789 13.6224 5.48161 13.8332 5.65996L18.0171 9.19935C18.4913 9.60048 18.2077 10.375 17.5866 10.375H6.04169C5.76555 10.375 5.5417 10.1511 5.54169 9.87497C5.54169 9.59882 5.76554 9.37497 6.04169 9.37497H16.6763L13.1874 6.4233C12.9765 6.24497 12.9501 5.92954 13.1284 5.71871Z" fill="currentColor"/>
</svg>
