<svg width="24" height="24" viewBox="0 0 24 24" fill="none" xmlns="http://www.w3.org/2000/svg">
<path d="M15.1772 11.7449C15.4534 11.7449 15.6772 11.9687 15.6772 12.2449C15.6772 12.521 15.4534 12.7449 15.1772 12.7449H11.1772C10.9011 12.7449 10.6772 12.521 10.6772 12.2449C10.6772 11.9687 10.9011 11.7449 11.1772 11.7449H15.1772Z" fill="currentColor"/>
<path d="M15.1772 9.4187C15.4534 9.4187 15.6772 9.64272 15.6772 9.91886C15.6772 10.195 15.4533 10.4189 15.1772 10.4189H11.1772C10.9011 10.4189 10.6773 10.195 10.6772 9.91886C10.6772 9.64272 10.9011 9.4187 11.1772 9.4187H15.1772Z" fill="currentColor"/>
<path d="M16.8318 5.58992C17.5682 5.58996 18.1652 6.18706 18.1652 6.92342V15.2403L18.1634 15.3088C18.1288 15.9905 17.5822 16.5372 16.9005 16.5719L16.8318 16.5736H15.8107V17.0767C15.8107 17.79 15.2504 18.3725 14.546 18.4083L14.4774 18.4101H7.16827L7.09959 18.4083C6.39514 18.3725 5.8348 17.7901 5.83478 17.0767V8.73901C5.83478 8.00263 6.43189 7.40568 7.16827 7.40568H8.18943V6.92342C8.18943 6.18704 8.78639 5.58992 9.52277 5.58992H16.8318ZM7.16827 8.40568C6.98418 8.40568 6.83494 8.55491 6.83494 8.73901V17.0767C6.83496 17.2608 6.98419 17.4101 7.16827 17.4101H14.4774C14.6614 17.41 14.8107 17.2608 14.8107 17.0767V16.5736H9.52277L9.45408 16.5719C8.77236 16.5373 8.2258 15.9906 8.19122 15.3088L8.18943 15.2403V8.40568H7.16827ZM9.52277 6.59008C9.33867 6.59008 9.18943 6.73932 9.18943 6.92342V15.2403C9.1895 15.4243 9.33871 15.5736 9.52277 15.5736H16.8318C17.0159 15.5736 17.1651 15.4243 17.1652 15.2403V6.92342C17.1652 6.73935 17.0159 6.59013 16.8318 6.59008H9.52277Z" fill="currentColor"/>
</svg>
