<svg width="24" height="24" viewBox="0 0 24 24" fill="none" xmlns="http://www.w3.org/2000/svg">
<path d="M10.6667 11.4167C10.9428 11.4167 11.1667 11.6405 11.1667 11.9167V14.5833C11.1667 14.8595 10.9428 15.0833 10.6667 15.0833C10.3905 15.0833 10.1667 14.8595 10.1667 14.5833V11.9167C10.1667 11.6405 10.3905 11.4167 10.6667 11.4167Z" fill="currentColor"/>
<path d="M13.3333 11.4167C13.6095 11.4167 13.8333 11.6405 13.8333 11.9167V14.5833C13.8333 14.8595 13.6095 15.0833 13.3333 15.0833C13.0572 15.0833 12.8333 14.8595 12.8333 14.5833V11.9167C12.8334 11.6405 13.0572 11.4167 13.3333 11.4167Z" fill="currentColor"/>
<path d="M14.3333 5.66667C15.0467 5.66667 15.6291 6.22686 15.6649 6.93132L15.6667 7.00001V8.16667H18.6667C18.9428 8.16667 19.1667 8.39053 19.1667 8.66667C19.1667 8.94281 18.9428 9.16667 18.6667 9.16667H17V17L16.9982 17.0687C16.9636 17.7504 16.4171 18.297 15.7354 18.3315L15.6667 18.3333H8.33334L8.26466 18.3315C7.5602 18.2958 7.00001 17.7133 7.00001 17V9.16667H5.33334C5.0572 9.16667 4.83334 8.94281 4.83334 8.66667C4.83334 8.39053 5.0572 8.16667 5.33334 8.16667H8.33334V7.00001C8.33334 6.28666 8.89353 5.70421 9.59799 5.66846L9.66668 5.66667H14.3333ZM8.00001 17C8.00001 17.1841 8.14925 17.3333 8.33334 17.3333H15.6667C15.8508 17.3333 16 17.1841 16 17V9.16667H8.00001V17ZM9.66668 6.66667C9.48258 6.66667 9.33334 6.81591 9.33334 7.00001V8.16667H14.6667V7.00001C14.6667 6.81591 14.5174 6.66667 14.3333 6.66667H9.66668Z" fill="currentColor"/>
</svg>
