<svg width="24" height="24" viewBox="0 0 24 24" fill="none" xmlns="http://www.w3.org/2000/svg">
<path d="M11.9545 8.33333C12.2307 8.33336 12.4545 8.55721 12.4545 8.83333V13.9595L13.7224 12.6917C13.9177 12.4965 14.2342 12.4965 14.4295 12.6917C14.6247 12.887 14.6247 13.2035 14.4295 13.3988L12.3082 15.5202C12.2974 15.531 12.2859 15.541 12.2744 15.5506C12.2733 15.5515 12.2723 15.5525 12.2713 15.5534C12.2598 15.5628 12.2479 15.5715 12.2358 15.5798C12.235 15.5803 12.2342 15.581 12.2334 15.5815C12.2262 15.5864 12.2186 15.5905 12.2112 15.5949C12.2042 15.5991 12.1974 15.6036 12.1902 15.6074C12.1849 15.6102 12.1795 15.6128 12.1741 15.6154C12.1645 15.6201 12.1549 15.6247 12.145 15.6287C12.1387 15.6313 12.1323 15.6334 12.1259 15.6357C12.1172 15.6389 12.1085 15.6423 12.0996 15.645C12.0938 15.6468 12.0878 15.648 12.082 15.6496C12.0413 15.6603 11.9986 15.6667 11.9545 15.6667C11.9097 15.6667 11.8663 15.6602 11.825 15.6491C11.82 15.6477 11.8148 15.6465 11.8098 15.645C11.7988 15.6417 11.788 15.6377 11.7773 15.6336C11.7735 15.6322 11.7695 15.6311 11.7657 15.6296C11.7549 15.6251 11.7444 15.62 11.734 15.6149C11.7293 15.6126 11.7244 15.6104 11.7197 15.6079C11.711 15.6033 11.7027 15.5981 11.6943 15.5929C11.6882 15.5892 11.682 15.5857 11.6761 15.5817C11.6746 15.5808 11.6732 15.5797 11.6718 15.5788C11.6606 15.5711 11.6495 15.5631 11.6388 15.5544C11.6363 15.5523 11.6339 15.55 11.6315 15.5479C11.6211 15.5391 11.6108 15.53 11.601 15.5202L9.47977 13.3988C9.28452 13.2035 9.28452 12.887 9.47977 12.6917C9.67503 12.4965 9.99155 12.4965 10.1868 12.6917L11.4545 13.9593V8.83333C11.4545 8.55721 11.6784 8.33337 11.9545 8.33333Z" fill="currentColor"/>
<path d="M16.6667 17V18H7.33333V17H16.6667ZM17 16.6667V7.33333C17 7.14924 16.8508 7 16.6667 7H7.33333C7.14924 7 7 7.14924 7 7.33333V16.6667C7 16.8508 7.14924 17 7.33333 17V18L7.26465 17.9982C6.58294 17.9636 6.03638 17.4171 6.00179 16.7354L6 16.6667V7.33333C6 6.59695 6.59695 6 7.33333 6H16.6667C17.403 6 18 6.59695 18 7.33333V16.6667C18 17.38 17.4398 17.9625 16.7354 17.9982L16.6667 18V17C16.8508 17 17 16.8508 17 16.6667Z" fill="currentColor"/>
</svg>
