<svg width="24" height="24" viewBox="0 0 24 24" fill="none" xmlns="http://www.w3.org/2000/svg">
<path d="M16.667 6C17.4031 6.00018 17.9998 6.59689 18 7.33301V16.667C17.9998 17.3802 17.4397 17.9623 16.7354 17.998L16.667 18H7.33301L7.26465 17.998C6.58295 17.9635 6.03655 17.4171 6.00195 16.7354L6 16.667V12.5C6 12.2239 6.22386 12 6.5 12C6.77614 12 7 12.2239 7 12.5V16.667C7.00018 16.8508 7.14917 16.9998 7.33301 17H16.667C16.8508 16.9998 16.9998 16.8508 17 16.667V7.33301C16.9998 7.14917 16.8508 7.00018 16.667 7H12.5C12.2239 7 12 6.77614 12 6.5C12 6.22386 12.2239 6 12.5 6H16.667ZM6.48535 6.47461C6.68349 6.28247 7.0001 6.28732 7.19238 6.48535L12.6924 12.1514C12.8846 12.3494 12.8795 12.6661 12.6816 12.8584C12.4836 13.0506 12.167 13.0465 11.9746 12.8486L6.47461 7.18164C6.28231 6.98351 6.28727 6.66694 6.48535 6.47461Z" fill="currentColor"/>
</svg>
