<svg width="24" height="24" viewBox="0 0 24 24" fill="none" xmlns="http://www.w3.org/2000/svg">
<path d="M12.5171 5.48118C12.6758 5.27333 12.9731 5.23342 13.1809 5.39207L17.1897 8.45334C17.6064 8.77156 17.6028 9.40011 17.1825 9.7135L13.1766 12.6997C12.9669 12.856 12.6702 12.8127 12.5139 12.603C12.3576 12.3933 12.4009 12.0966 12.6105 11.9403L15.9131 9.47839H10.9202C9.00213 9.47839 7.4472 11.0333 7.4472 12.9514C7.4472 14.8696 9.00214 16.4245 10.9202 16.4245H16.1298C16.3914 16.4245 16.6034 16.6365 16.6034 16.8981C16.6034 17.1597 16.3914 17.3717 16.1298 17.3717H10.9202C8.47902 17.3717 6.50001 15.3927 6.5 12.9514C6.5 10.5102 8.47901 8.5312 10.9202 8.5312H15.7312L12.6062 6.14502C12.3984 5.98629 12.3585 5.68904 12.5171 5.48118Z" fill="currentColor"/>
</svg>
