<svg width="24" height="24" viewBox="0 0 24 24" fill="none" xmlns="http://www.w3.org/2000/svg">
<path d="M12.327 6.00026C12.7718 5.55547 13.4931 5.55544 13.938 6.00026L18.4773 10.5396C18.9161 10.9784 18.9229 11.6879 18.4925 12.135L13.4662 17.357H17.2818C17.5514 17.357 17.77 17.5756 17.77 17.8452C17.77 18.1148 17.5514 18.3333 17.2818 18.3333H9.84834C9.63525 18.3333 9.43061 18.2498 9.2785 18.1005L5.53037 14.4231C5.07832 13.9796 5.07493 13.2525 5.52274 12.8046L12.327 6.00026ZM6.21303 13.4949C6.14907 13.5589 6.1496 13.6628 6.21415 13.7261L9.91476 17.357H12.1113L14.5879 14.7838L9.75602 9.95195L6.21303 13.4949ZM13.2475 6.69071C13.184 6.62717 13.081 6.62719 13.0174 6.69071L10.4463 9.26166L15.265 14.0803L17.7891 11.4579C17.8505 11.394 17.8495 11.2927 17.7868 11.23L13.2475 6.69071Z" fill="currentColor"/>
</svg>
