<svg width="24" height="24" viewBox="0 0 24 24" fill="none" xmlns="http://www.w3.org/2000/svg">
<path d="M12 12.8122C12.9205 12.8122 13.6667 13.5584 13.6667 14.4788C13.6666 15.3993 12.9205 16.1455 12 16.1455C11.0795 16.1455 10.3334 15.3993 10.3333 14.4788C10.3333 13.5584 11.0795 12.8122 12 12.8122Z" fill="currentColor"/>
<path d="M14.0702 7.8125C14.2542 7.8125 14.4036 7.96161 14.4036 8.14567V9.23535C14.4036 9.41943 14.2542 9.56869 14.0702 9.56869H7.90658C7.72249 9.56869 7.57326 9.41943 7.57324 9.23535V8.14567C7.57329 7.96161 7.72251 7.8125 7.90658 7.8125H14.0702Z" fill="currentColor"/>
<path d="M14.7373 5.37028C15.068 5.38673 15.3817 5.52583 15.6164 5.76172L18.2433 8.40283C18.4918 8.65266 18.6313 8.99074 18.6313 9.3431V17.298C18.6313 18.0344 18.0344 18.6313 17.298 18.6313H6.70199L6.6333 18.6296C5.92884 18.5938 5.36865 18.0114 5.36865 17.298V6.70199C5.36865 5.98864 5.92884 5.40619 6.6333 5.37044L6.70199 5.36865H14.6711L14.7373 5.37028ZM6.70199 6.36865C6.51789 6.36865 6.36865 6.51789 6.36865 6.70199V17.298C6.36865 17.4821 6.51789 17.6313 6.70199 17.6313H17.298C17.4821 17.6313 17.6313 17.4821 17.6313 17.298V9.3431C17.6313 9.25502 17.5965 9.17052 17.5343 9.10807L14.9074 6.46696C14.8448 6.40407 14.7598 6.36866 14.6711 6.36865H6.70199Z" fill="currentColor"/>
</svg>
