<svg width="24" height="24" viewBox="0 0 24 24" fill="none" xmlns="http://www.w3.org/2000/svg">
<path d="M6.5 14.3333C6.77614 14.3333 7 14.5572 7 14.8333V16.6667C7 16.8508 7.14924 17 7.33333 17H8.83333C9.10948 17 9.33333 17.2239 9.33333 17.5C9.33333 17.7761 9.10948 18 8.83333 18H7.33333L7.26465 17.9982C6.58294 17.9636 6.03638 17.4171 6.00179 16.7354L6 16.6667V14.8333C6 14.5572 6.22386 14.3333 6.5 14.3333Z" fill="currentColor"/>
<path d="M17.5 14.3333C17.7761 14.3333 18 14.5572 18 14.8333V16.6667C18 17.38 17.4398 17.9625 16.7354 17.9982L16.6667 18H15.1667C14.8905 18 14.6667 17.7761 14.6667 17.5C14.6667 17.2239 14.8905 17 15.1667 17H16.6667C16.8508 17 17 16.8508 17 16.6667V14.8333C17 14.5572 17.2239 14.3333 17.5 14.3333Z" fill="currentColor"/>
<path d="M8.83333 6C9.10948 6 9.33333 6.22386 9.33333 6.5C9.33333 6.77614 9.10948 7 8.83333 7H7.33333C7.14924 7 7 7.14924 7 7.33333V8.5C7 8.77614 6.77614 9 6.5 9C6.22386 9 6 8.77614 6 8.5V7.33333C6 6.59695 6.59695 6 7.33333 6H8.83333Z" fill="currentColor"/>
<path d="M16.6667 6C17.403 6 18 6.59695 18 7.33333V8.5C18 8.77614 17.7761 9 17.5 9C17.2239 9 17 8.77614 17 8.5V7.33333C17 7.14924 16.8508 7 16.6667 7H15.1667C14.8905 7 14.6667 6.77614 14.6667 6.5C14.6667 6.22386 14.8905 6 15.1667 6H16.6667Z" fill="currentColor"/>
<path d="M15.3333 11.4167C15.6095 11.4167 15.8333 11.6405 15.8333 11.9167C15.8333 12.1928 15.6095 12.4167 15.3333 12.4167H8.66667C8.39052 12.4167 8.16667 12.1928 8.16667 11.9167C8.16667 11.6405 8.39052 11.4167 8.66667 11.4167H15.3333Z" fill="currentColor"/>
</svg>
