<svg width="24" height="24" viewBox="0 0 24 24" fill="none" xmlns="http://www.w3.org/2000/svg">
<path d="M12.2992 7.1683C12.2992 6.44017 13.1674 6.06228 13.7004 6.55844L18.4036 10.9378C18.7652 11.2745 18.7562 11.85 18.3843 12.1751L13.681 16.2874C13.1421 16.7586 12.2992 16.3758 12.2992 15.66V14.2054C10.0834 14.0927 8.41036 15.8693 7.53744 17.368C7.35193 17.6865 7.01187 17.8219 6.70687 17.7918C6.39307 17.7609 6.0688 17.5452 5.98617 17.1494C5.45183 14.5904 6.38085 12.6702 7.79004 11.3319C9.1385 10.0513 10.9244 9.29893 12.2992 8.95671V7.1683ZM13.2992 9.08383C13.2991 9.48314 13.0192 9.81367 12.6481 9.90121C11.3708 10.2024 9.69974 10.8974 8.47868 12.057C7.36026 13.1191 6.61838 14.5657 6.88965 16.5127C7.90637 14.9369 9.85254 12.9681 12.5623 13.2219C13.0014 13.263 13.2992 13.6372 13.2992 14.0405V14.5587C13.2992 14.845 13.6364 14.9981 13.8519 14.8096L17.5869 11.5436L13.8596 8.07314C13.6465 7.87466 13.2992 8.02583 13.2992 8.3171V9.08383Z" fill="currentColor"/>
</svg>
