<svg width="24" height="24" viewBox="0 0 24 24" fill="none" xmlns="http://www.w3.org/2000/svg">
<path d="M10.819 5.39215C11.0268 5.23348 11.3241 5.27343 11.4828 5.48126C11.6415 5.68913 11.6016 5.98637 11.3937 6.14509L8.26879 8.53125H13.0798C15.521 8.53127 17.5 10.5103 17.5 12.9514C17.5 15.3926 15.521 17.3716 13.0798 17.3717H7.87027C7.60872 17.3717 7.39669 17.1596 7.39668 16.8981C7.39668 16.6365 7.60871 16.4245 7.87027 16.4245H13.0798C14.9979 16.4244 16.5528 14.8695 16.5528 12.9514C16.5528 11.0334 14.9979 9.47845 13.0798 9.47843H8.08687L11.3894 11.9403C11.5991 12.0966 11.6424 12.3933 11.486 12.603C11.3297 12.8127 11.033 12.856 10.8233 12.6997L6.81748 9.71353C6.3972 9.40015 6.39359 8.7716 6.81024 8.45339L10.819 5.39215Z" fill="currentColor"/>
</svg>
