<svg width="24" height="24" viewBox="0 0 24 24" fill="none" xmlns="http://www.w3.org/2000/svg">
<path d="M17.1451 13.9452C17.2428 13.6869 17.5314 13.5568 17.7896 13.6545C18.0478 13.7523 18.178 14.0408 18.0803 14.2991C16.8106 17.655 13.0608 19.3462 9.70484 18.0766C8.51874 17.6278 7.54031 16.8685 6.82724 15.9268V16.7258C6.82724 17.0019 6.60338 17.2258 6.32724 17.2258C6.0511 17.2258 5.82724 17.0019 5.82724 16.7258V14.7258C5.82724 14.4583 6.03733 14.2398 6.30152 14.2265C6.31004 14.226 6.31862 14.2258 6.32724 14.2258H8.32724C8.60338 14.2258 8.82724 14.4497 8.82724 14.7258C8.82724 15.0019 8.60338 15.2258 8.32724 15.2258H7.55234C8.16097 16.0676 9.01428 16.7462 10.0587 17.1413C12.8981 18.2155 16.0708 16.7846 17.1451 13.9452Z" fill="currentColor"/>
<path d="M6.94394 7.92226C8.65818 5.79442 11.607 4.90361 14.3028 5.92356C15.4846 6.37071 16.4604 7.12602 17.1728 8.06305V7.26308C17.1728 6.98695 17.3966 6.76308 17.6728 6.76308C17.9489 6.76308 18.1728 6.98695 18.1728 7.26308V9.26308C18.1728 9.53922 17.9489 9.76308 17.6728 9.76308H15.6728C15.3966 9.76308 15.1728 9.53922 15.1728 9.26308C15.1728 8.98695 15.3966 8.76308 15.6728 8.76308H16.4472C15.8391 7.92651 14.9888 7.25219 13.949 6.85878C11.6694 5.99632 9.17362 6.74857 7.72258 8.5497C7.36734 8.99069 7.07438 9.49505 6.86256 10.0549C6.76484 10.3131 6.47628 10.4433 6.21803 10.3456C5.95978 10.2479 5.82952 9.95932 5.92717 9.70107C6.17687 9.04109 6.52317 8.44457 6.94394 7.92226Z" fill="currentColor"/>
</svg>
