<svg width="24" height="24" viewBox="0 0 24 24" fill="none" xmlns="http://www.w3.org/2000/svg">
<g transform="rotate(90 12 12)">
<path d="M12 6.16667C12.2761 6.16668 12.5 6.39054 12.5 6.66667V16.2725L15.1423 13.5672C15.3352 13.3697 15.6519 13.366 15.8495 13.5589C16.047 13.7519 16.0507 14.0686 15.8578 14.2661L12.599 17.6024L12.5674 17.633C12.2463 17.9294 11.7489 17.9265 11.4312 17.6265L11.3999 17.5956L8.13835 14.1786C7.94768 13.9788 7.95504 13.6624 8.15479 13.4717C8.35454 13.281 8.671 13.2884 8.86166 13.4881L11.5 16.2521V6.66667C11.5 6.39053 11.7239 6.16667 12 6.16667Z" fill="currentColor"/>
</g>
</svg>
