<svg width="24" height="24" viewBox="0 0 24 24" fill="none" xmlns="http://www.w3.org/2000/svg">
<path d="M6.44228 12.698C6.11608 12.3774 6.10915 11.8538 6.42682 11.5248L10.864 6.92907C11.0558 6.73043 11.3724 6.7249 11.571 6.91671C11.7697 7.10851 11.7752 7.42508 11.5834 7.62374L7.2608 12.1006L11.7408 16.5031C11.9377 16.6967 11.9405 17.0132 11.747 17.2102C11.5534 17.4071 11.2369 17.4099 11.0399 17.2163L6.44228 12.698Z" fill="currentColor"/>
<path d="M12.2756 12.698C11.9494 12.3774 11.9425 11.8538 12.2601 11.5248L16.6973 6.92907C16.8891 6.73043 17.2057 6.7249 17.4044 6.91671C17.603 7.10851 17.6085 7.42508 17.4167 7.62374L13.0941 12.1006L17.5741 16.5031C17.7711 16.6967 17.7738 17.0132 17.5803 17.2102C17.3867 17.4071 17.0702 17.4099 16.8733 17.2163L12.2756 12.698Z" fill="#666666"/>
</svg>
