<svg width="24" height="24" viewBox="0 0 24 24" fill="none" xmlns="http://www.w3.org/2000/svg">
<path d="M11.3284 6.55196C11.649 6.22576 12.1725 6.21883 12.5016 6.5365L17.0973 10.9737C17.2959 11.1655 17.3014 11.4821 17.1096 11.6807C16.9178 11.8793 16.6013 11.8849 16.4026 11.6931L11.9257 7.37048L7.52322 11.8505C7.32967 12.0474 7.01314 12.0502 6.81618 11.8566C6.61924 11.6631 6.61646 11.3466 6.81 11.1496L11.3284 6.55196Z" fill="currentColor"/>
<path d="M11.3284 12.3853C11.649 12.0591 12.1725 12.0522 12.5016 12.3698L17.0973 16.807C17.2959 16.9988 17.3014 17.3154 17.1096 17.514C16.9178 17.7127 16.6013 17.7182 16.4026 17.5264L11.9257 13.2038L7.52322 17.6838C7.32967 17.8807 7.01314 17.8835 6.81618 17.69C6.61924 17.4964 6.61646 17.1799 6.81 16.9829L11.3284 12.3853Z" fill="#666666"/>
</svg>
