<svg width="38" height="38" viewBox="0 0 38 38" fill="none" xmlns="http://www.w3.org/2000/svg">
<path d="M8.84558 9.0957H31.6356V33.5H10.8456C9.74101 33.5 8.84558 32.6046 8.84558 31.5V9.0957Z" fill="#780829"/>
<path d="M10.8006 4.49805H27.6806C28.7852 4.49805 29.6806 5.39348 29.6806 6.49805V25.1367H10.8006V4.49805Z" fill="#E51051"/>
<path d="M6.36437 7.22927L10.8009 4.49805V25.1367L6.36437 27.8679V7.22927Z" fill="#E95985"/>
<path d="M22.5282 31.3164V26.9004H23.6742C25.0302 26.9004 25.8042 27.6504 25.8042 29.0904C25.8042 30.5244 25.0302 31.3164 23.7102 31.3164H22.5282ZM23.2242 30.7464H23.6262C24.5742 30.7464 25.0842 30.1884 25.0842 29.0904C25.0842 27.9864 24.5742 27.4644 23.6262 27.4644H23.2242V30.7464Z" fill="white"/>
<path d="M19.4618 29.5104H20.6678L20.4938 28.9164C20.3438 28.4364 20.2118 27.9444 20.0738 27.4464H20.0498C19.9238 27.9504 19.7858 28.4364 19.6418 28.9164L19.4618 29.5104ZM21.2078 31.3164L20.8358 30.0564H19.2998L18.9218 31.3164H18.2138L19.6778 26.9004H20.4818L21.9458 31.3164H21.2078Z" fill="white"/>
<path d="M16.6389 31.3944C15.5289 31.3944 14.6769 30.5664 14.6769 29.1204C14.6769 27.6804 15.5529 26.8164 16.6689 26.8164C17.2209 26.8164 17.6529 27.0804 17.9229 27.3744L17.5449 27.8184C17.3169 27.5844 17.0409 27.4224 16.6809 27.4224C15.9189 27.4224 15.3909 28.0584 15.3909 29.0964C15.3909 30.1464 15.8829 30.7884 16.6629 30.7884C17.0649 30.7884 17.3769 30.6084 17.6409 30.3204L18.0129 30.7584C17.6589 31.1664 17.2089 31.3944 16.6389 31.3944Z" fill="white"/>
<path d="M18.9736 15.7287H21.4376L21.1296 14.5947C20.8076 13.5167 20.5276 12.3267 20.2196 11.2067H20.1636C19.8976 12.3407 19.5896 13.5167 19.2816 14.5947L18.9736 15.7287ZM22.6136 19.9987L21.8856 17.3387H18.5256L17.7976 19.9987H15.6976L19.0156 9.63867H21.4516L24.7836 19.9987H22.6136Z" fill="white"/>
</svg>
