<svg width="38" height="38" viewBox="0 0 38 38" fill="none" xmlns="http://www.w3.org/2000/svg">
<path d="M8.84561 9.0957H31.6356V33.5H10.8456C9.74104 33.5 8.84561 32.6046 8.84561 31.5V9.0957Z" fill="#36697F"/>
<path d="M10.8006 4.49805H27.6806C28.7852 4.49805 29.6806 5.39348 29.6806 6.49805V25.1367H10.8006V4.49805Z" fill="#37A5CC"/>
<path d="M6.36443 7.22927L10.8009 4.49805V25.1367L6.36443 27.8679V7.22927Z" fill="#7DC6DD"/>
<path d="M22.6591 31.3164L23.9251 29.0364L22.7371 26.9004H23.5111L24.0451 27.9324C24.1531 28.1364 24.2491 28.3344 24.3811 28.5984H24.4111C24.5251 28.3344 24.6091 28.1364 24.7111 27.9324L25.2331 26.9004H25.9651L24.7771 29.0724L26.0491 31.3164H25.2751L24.6931 30.2184C24.5791 29.9964 24.4651 29.7684 24.3271 29.4984H24.3031C24.1771 29.7684 24.0691 29.9964 23.9611 30.2184L23.3971 31.3164H22.6591Z" fill="white"/>
<path d="M20.0787 29.5104H21.2847L21.1107 28.9164C20.9607 28.4364 20.8287 27.9444 20.6907 27.4464H20.6667C20.5407 27.9504 20.4027 28.4364 20.2587 28.9164L20.0787 29.5104ZM21.8247 31.3164L21.4527 30.0564H19.9167L19.5387 31.3164H18.8307L20.2947 26.9004H21.0987L22.5627 31.3164H21.8247Z" fill="white"/>
<path d="M14.4322 31.3164V26.9004H15.2302L16.0402 29.1324C16.1422 29.4264 16.2322 29.7264 16.3342 30.0264H16.3642C16.4662 29.7264 16.5502 29.4264 16.6522 29.1324L17.4502 26.9004H18.2542V31.3164H17.6062V29.1324C17.6062 28.7364 17.6602 28.1664 17.6962 27.7644H17.6722L17.3182 28.7844L16.5502 30.8904H16.1182L15.3442 28.7844L14.9962 27.7644H14.9722C15.0022 28.1664 15.0562 28.7364 15.0562 29.1324V31.3164H14.4322Z" fill="white"/>
<path d="M20.1566 20.1934C18.5186 20.1934 17.4126 19.5774 16.6846 18.7514L17.6506 17.4494C18.2666 18.0514 19.0226 18.5134 19.9606 18.5134C21.0106 18.5134 21.7246 17.9954 21.7246 17.0714C21.7246 16.0494 21.1226 15.4194 18.8686 15.4194V13.9354C20.7726 13.9354 21.3886 13.2774 21.3886 12.3534C21.3886 11.5414 20.8846 11.0654 20.0026 11.0514C19.2606 11.0654 18.6586 11.4154 18.0426 11.9754L16.9926 10.7154C17.8886 9.93141 18.8826 9.44141 20.1006 9.44141C22.1026 9.44141 23.4606 10.4214 23.4606 12.1994C23.4606 13.3194 22.8306 14.1314 21.7246 14.5654V14.6354C22.9006 14.9574 23.7966 15.8254 23.7966 17.1834C23.7966 19.0874 22.1306 20.1934 20.1566 20.1934Z" fill="white"/>
</svg>
