<svg width="38" height="38" viewBox="0 0 38 38" fill="none" xmlns="http://www.w3.org/2000/svg">
<g clip-path="url(#clip0_324_1616)">
<path d="M6.34427 7.1447V28.4287C6.34427 29.8894 7.52834 31.0734 8.98897 31.0734H25.7006C27.6482 31.0734 29.2269 29.4946 29.2269 27.5471V13.3578L21.8455 4.5H8.98897C7.52834 4.5 6.34427 5.68408 6.34427 7.1447Z" fill="#F5F5F5"/>
<path d="M19.2989 11.207H9.56621V13.2939H19.2989V11.207Z" fill="#E2E2E2"/>
<path d="M19.2989 15.6992H9.56621V17.7861H19.2989V15.6992Z" fill="#E2E2E2"/>
<path d="M19.2989 20.1934H9.56621V22.2802H19.2989V20.1934Z" fill="#E2E2E2"/>
<path d="M21.8449 4.5V11.5947C21.8449 12.5684 22.6342 13.3578 23.608 13.3578H29.2264L25.8711 9.09925L21.8449 4.5Z" fill="#E2E2E2"/>
<path d="M28.9988 18.3027H19.0909C17.6302 18.3027 16.4462 19.4868 16.4462 20.9474V30.8554C16.4462 32.316 17.6302 33.5001 19.0909 33.5001H28.9988C30.4594 33.5001 31.6435 32.316 31.6435 30.8554V20.9474C31.6435 19.4868 30.4594 18.3027 28.9988 18.3027Z" fill="#DE0F0F"/>
<path d="M29.2101 18.334C30.5539 18.334 31.6432 19.4233 31.6432 20.7671L16.445 20.7671C16.445 19.4233 17.5344 18.334 18.8782 18.334L29.2101 18.334Z" fill="#DE0F0F"/>
<path d="M27.9972 28.0747C27.3348 28.0256 26.6968 27.7802 26.1815 27.3385C25.1755 27.5594 24.2186 27.8784 23.2616 28.2709C22.501 29.6205 21.7894 30.3075 21.176 30.3075C21.0533 30.3075 20.9061 30.283 20.8079 30.2094C20.538 30.0867 20.3908 29.8168 20.3908 29.5469C20.3908 29.326 20.4399 28.7126 22.7709 27.7066C23.3107 26.7251 23.7278 25.7191 24.0713 24.664C23.7769 24.0751 23.1389 22.6274 23.5806 21.8913C23.7278 21.6214 24.0223 21.4742 24.3412 21.4987C24.5866 21.4987 24.832 21.6214 24.9792 21.8177C25.2982 22.2594 25.2736 23.1918 24.8565 24.5659C25.2491 25.302 25.7644 25.9645 26.3778 26.5288C26.8931 26.4307 27.4084 26.3571 27.9236 26.3571C29.0769 26.3816 29.2486 26.9214 29.2241 27.2404C29.2241 28.0747 28.4144 28.0747 27.9972 28.0747ZM21.1269 29.5959L21.2005 29.5714C21.544 29.4487 21.8139 29.2033 22.0102 28.8844C21.6422 29.0316 21.3477 29.277 21.1269 29.5959ZM24.3903 22.2348H24.3167C24.2922 22.2348 24.2431 22.2348 24.2186 22.2594C24.1204 22.6765 24.194 23.1182 24.3658 23.5108C24.513 23.0936 24.513 22.652 24.3903 22.2348ZM24.5621 25.7927L24.5375 25.8418L24.513 25.8172C24.2922 26.3816 24.0468 26.9459 23.7769 27.4858L23.826 27.4612V27.5103C24.3658 27.314 24.9547 27.1422 25.4945 27.0196L25.4699 26.995H25.5435C25.1755 26.627 24.832 26.2098 24.5621 25.7927ZM27.8991 27.0932C27.6783 27.0932 27.482 27.0932 27.2611 27.1422C27.5065 27.2649 27.7519 27.314 27.9972 27.3385C28.169 27.3631 28.3408 27.3385 28.488 27.2895C28.488 27.2159 28.3898 27.0932 27.8991 27.0932Z" fill="white"/>
<path d="M31.6557 31.1001C31.6557 32.4439 30.5664 33.5332 29.2226 33.5332L29.2226 18.335C30.5664 18.335 31.6557 19.4243 31.6557 20.7681L31.6557 31.1001Z" fill="#F9595F"/>
<path d="M18.8909 33.5332C17.5471 33.5332 16.4577 32.4439 16.4577 31.1001L31.656 31.1001C31.656 32.4439 30.5666 33.5332 29.2228 33.5332L18.8909 33.5332Z" fill="#B91017"/>
</g>
<defs>
<clipPath id="clip0_324_1616">
<rect width="25.3115" height="29" fill="white" transform="translate(6.34427 4.5)"/>
</clipPath>
</defs>
</svg>
