<svg width="38" height="38" viewBox="0 0 38 38" fill="none" xmlns="http://www.w3.org/2000/svg">
<path d="M8.84558 9.0957H31.6356V33.5H10.8456C9.74101 33.5 8.84558 32.6046 8.84558 31.5V9.0957Z" fill="#0C3D91"/>
<path d="M10.8006 4.49805H27.6806C28.7852 4.49805 29.6806 5.39348 29.6806 6.49805V25.1367H10.8006V4.49805Z" fill="#186BFF"/>
<path d="M6.36437 7.22927L10.8009 4.49805V25.1367L6.36437 27.8679V7.22927Z" fill="#679AE7"/>
<path d="M23.4387 31.3164V27.4824H22.1427V26.9004H25.4367V27.4824H24.1347V31.3164H23.4387Z" fill="white"/>
<path d="M19.7682 31.3164L18.3822 26.9004H19.1202L19.7742 29.1864C19.9242 29.6904 20.0202 30.1224 20.1762 30.6324H20.2062C20.3562 30.1224 20.4642 29.6904 20.6082 29.1864L21.2622 26.9004H21.9702L20.5902 31.3164H19.7682Z" fill="white"/>
<path d="M15.7406 27.4584V28.9764H16.4066C17.0486 28.9764 17.3966 28.7124 17.3966 28.1784C17.3966 27.6444 17.0486 27.4584 16.4066 27.4584H15.7406ZM18.2426 31.3164H17.4566L16.4546 29.5344H15.7406V31.3164H15.0446V26.9004H16.4906C17.4026 26.9004 18.0866 27.2244 18.0866 28.1784C18.0866 28.8624 17.7206 29.2704 17.1626 29.4444L18.2426 31.3164Z" fill="white"/>
<path d="M18.3366 11.2767V14.4407H19.6806C21.0106 14.4407 21.7386 13.8807 21.7386 12.7747C21.7386 11.6547 21.0106 11.2767 19.6806 11.2767H18.3366ZM24.2166 19.9987H21.9066L19.7786 16.0787H18.3366V19.9987H16.2646V9.63867H19.8766C22.0466 9.63867 23.7686 10.3947 23.7686 12.7747C23.7686 14.3287 22.9846 15.2947 21.7946 15.7567L24.2166 19.9987Z" fill="white"/>
</svg>
